<mxfile host="app.diagrams.net" modified="2022-02-16T08:29:02.885Z" agent="5.0 (Macintosh; Intel Mac OS X 10_15_7) AppleWebKit/537.36 (KHTML, like Gecko) Chrome/98.0.4758.80 Safari/537.36" etag="Pjlj6AlRLVPrJhHUrcew" version="16.5.3" type="github">
  <diagram id="qeYEySQ6WYwCkoiApSsx" name="第 1 页">
    <mxGraphModel dx="899" dy="589" grid="1" gridSize="10" guides="1" tooltips="1" connect="1" arrows="1" fold="1" page="1" pageScale="1" pageWidth="827" pageHeight="1169" math="0" shadow="0">
      <root>
        <mxCell id="0" />
        <mxCell id="1" parent="0" />
        <mxCell id="CvzOd15_7W6yQIFkIitd-2" value="Show（节目对象）" style="swimlane;fontStyle=0;childLayout=stackLayout;horizontal=1;startSize=30;horizontalStack=0;resizeParent=1;resizeParentMax=0;resizeLast=0;collapsible=1;marginBottom=0;rounded=0;sketch=1;shadow=0;glass=0;swimlaneLine=1;fontFamily=Comic Sans MS;" vertex="1" parent="1">
          <mxGeometry x="520" y="40" width="170" height="450" as="geometry">
            <mxRectangle x="240" y="200" width="50" height="30" as="alternateBounds" />
          </mxGeometry>
        </mxCell>
        <mxCell id="CvzOd15_7W6yQIFkIitd-3" value="id" style="text;strokeColor=none;fillColor=none;align=left;verticalAlign=middle;spacingLeft=4;spacingRight=4;overflow=hidden;points=[[0,0.5],[1,0.5]];portConstraint=eastwest;rotatable=0;rounded=0;sketch=1;fontFamily=Comic Sans MS;" vertex="1" parent="CvzOd15_7W6yQIFkIitd-2">
          <mxGeometry y="30" width="170" height="30" as="geometry" />
        </mxCell>
        <mxCell id="CvzOd15_7W6yQIFkIitd-4" value="channel_name" style="text;strokeColor=none;fillColor=none;align=left;verticalAlign=middle;spacingLeft=4;spacingRight=4;overflow=hidden;points=[[0,0.5],[1,0.5]];portConstraint=eastwest;rotatable=0;rounded=0;sketch=1;fontFamily=Comic Sans MS;" vertex="1" parent="CvzOd15_7W6yQIFkIitd-2">
          <mxGeometry y="60" width="170" height="30" as="geometry" />
        </mxCell>
        <mxCell id="CvzOd15_7W6yQIFkIitd-55" value="project_id" style="text;strokeColor=none;fillColor=none;align=left;verticalAlign=middle;spacingLeft=4;spacingRight=4;overflow=hidden;points=[[0,0.5],[1,0.5]];portConstraint=eastwest;rotatable=0;rounded=0;sketch=1;fontFamily=Comic Sans MS;" vertex="1" parent="CvzOd15_7W6yQIFkIitd-2">
          <mxGeometry y="90" width="170" height="30" as="geometry" />
        </mxCell>
        <mxCell id="CvzOd15_7W6yQIFkIitd-5" value="name" style="text;strokeColor=none;fillColor=none;align=left;verticalAlign=middle;spacingLeft=4;spacingRight=4;overflow=hidden;points=[[0,0.5],[1,0.5]];portConstraint=eastwest;rotatable=0;rounded=0;sketch=1;fontFamily=Comic Sans MS;" vertex="1" parent="CvzOd15_7W6yQIFkIitd-2">
          <mxGeometry y="120" width="170" height="30" as="geometry" />
        </mxCell>
        <mxCell id="CvzOd15_7W6yQIFkIitd-17" value="total_cost" style="text;strokeColor=none;fillColor=none;align=left;verticalAlign=middle;spacingLeft=4;spacingRight=4;overflow=hidden;points=[[0,0.5],[1,0.5]];portConstraint=eastwest;rotatable=0;rounded=0;sketch=1;fontFamily=Comic Sans MS;" vertex="1" parent="CvzOd15_7W6yQIFkIitd-2">
          <mxGeometry y="150" width="170" height="30" as="geometry" />
        </mxCell>
        <mxCell id="CvzOd15_7W6yQIFkIitd-19" value="guest_cost" style="text;strokeColor=none;fillColor=none;align=left;verticalAlign=middle;spacingLeft=4;spacingRight=4;overflow=hidden;points=[[0,0.5],[1,0.5]];portConstraint=eastwest;rotatable=0;rounded=0;sketch=1;fontFamily=Comic Sans MS;" vertex="1" parent="CvzOd15_7W6yQIFkIitd-2">
          <mxGeometry y="180" width="170" height="30" as="geometry" />
        </mxCell>
        <mxCell id="CvzOd15_7W6yQIFkIitd-20" value="guest_fee" style="text;strokeColor=none;fillColor=none;align=left;verticalAlign=middle;spacingLeft=4;spacingRight=4;overflow=hidden;points=[[0,0.5],[1,0.5]];portConstraint=eastwest;rotatable=0;rounded=0;sketch=1;fontFamily=Comic Sans MS;" vertex="1" parent="CvzOd15_7W6yQIFkIitd-2">
          <mxGeometry y="210" width="170" height="30" as="geometry" />
        </mxCell>
        <mxCell id="CvzOd15_7W6yQIFkIitd-21" value="episodes" style="text;strokeColor=none;fillColor=none;align=left;verticalAlign=middle;spacingLeft=4;spacingRight=4;overflow=hidden;points=[[0,0.5],[1,0.5]];portConstraint=eastwest;rotatable=0;rounded=0;sketch=1;fontFamily=Comic Sans MS;" vertex="1" parent="CvzOd15_7W6yQIFkIitd-2">
          <mxGeometry y="240" width="170" height="30" as="geometry" />
        </mxCell>
        <mxCell id="CvzOd15_7W6yQIFkIitd-22" value="show_duration" style="text;strokeColor=none;fillColor=none;align=left;verticalAlign=middle;spacingLeft=4;spacingRight=4;overflow=hidden;points=[[0,0.5],[1,0.5]];portConstraint=eastwest;rotatable=0;rounded=0;sketch=1;fontFamily=Comic Sans MS;" vertex="1" parent="CvzOd15_7W6yQIFkIitd-2">
          <mxGeometry y="270" width="170" height="30" as="geometry" />
        </mxCell>
        <mxCell id="CvzOd15_7W6yQIFkIitd-23" value="broadcast_schedule" style="text;strokeColor=none;fillColor=none;align=left;verticalAlign=middle;spacingLeft=4;spacingRight=4;overflow=hidden;points=[[0,0.5],[1,0.5]];portConstraint=eastwest;rotatable=0;rounded=0;sketch=1;fontFamily=Comic Sans MS;" vertex="1" parent="CvzOd15_7W6yQIFkIitd-2">
          <mxGeometry y="300" width="170" height="30" as="geometry" />
        </mxCell>
        <mxCell id="CvzOd15_7W6yQIFkIitd-24" value="show_record" style="text;strokeColor=none;fillColor=none;align=left;verticalAlign=middle;spacingLeft=4;spacingRight=4;overflow=hidden;points=[[0,0.5],[1,0.5]];portConstraint=eastwest;rotatable=0;rounded=0;sketch=1;fontFamily=Comic Sans MS;" vertex="1" parent="CvzOd15_7W6yQIFkIitd-2">
          <mxGeometry y="330" width="170" height="30" as="geometry" />
        </mxCell>
        <mxCell id="CvzOd15_7W6yQIFkIitd-25" value="sarft_reply" style="text;strokeColor=none;fillColor=none;align=left;verticalAlign=middle;spacingLeft=4;spacingRight=4;overflow=hidden;points=[[0,0.5],[1,0.5]];portConstraint=eastwest;rotatable=0;rounded=0;sketch=1;fontFamily=Comic Sans MS;" vertex="1" parent="CvzOd15_7W6yQIFkIitd-2">
          <mxGeometry y="360" width="170" height="30" as="geometry" />
        </mxCell>
        <mxCell id="CvzOd15_7W6yQIFkIitd-26" value="created" style="text;strokeColor=none;fillColor=none;align=left;verticalAlign=middle;spacingLeft=4;spacingRight=4;overflow=hidden;points=[[0,0.5],[1,0.5]];portConstraint=eastwest;rotatable=0;rounded=0;sketch=1;fontFamily=Comic Sans MS;" vertex="1" parent="CvzOd15_7W6yQIFkIitd-2">
          <mxGeometry y="390" width="170" height="30" as="geometry" />
        </mxCell>
        <mxCell id="CvzOd15_7W6yQIFkIitd-27" value="updated" style="text;strokeColor=none;fillColor=none;align=left;verticalAlign=middle;spacingLeft=4;spacingRight=4;overflow=hidden;points=[[0,0.5],[1,0.5]];portConstraint=eastwest;rotatable=0;rounded=0;sketch=1;fontFamily=Comic Sans MS;" vertex="1" parent="CvzOd15_7W6yQIFkIitd-2">
          <mxGeometry y="420" width="170" height="30" as="geometry" />
        </mxCell>
        <mxCell id="CvzOd15_7W6yQIFkIitd-29" value="RecPlan（录制计划）" style="swimlane;fontStyle=0;childLayout=stackLayout;horizontal=1;startSize=30;horizontalStack=0;resizeParent=1;resizeParentMax=0;resizeLast=0;collapsible=1;marginBottom=0;rounded=0;sketch=1;fontFamily=Comic Sans MS;" vertex="1" parent="1">
          <mxGeometry x="840" y="290" width="170" height="330" as="geometry">
            <mxRectangle x="240" y="200" width="50" height="30" as="alternateBounds" />
          </mxGeometry>
        </mxCell>
        <mxCell id="CvzOd15_7W6yQIFkIitd-30" value="id" style="text;strokeColor=none;fillColor=none;align=left;verticalAlign=middle;spacingLeft=4;spacingRight=4;overflow=hidden;points=[[0,0.5],[1,0.5]];portConstraint=eastwest;rotatable=0;rounded=0;sketch=1;fontFamily=Comic Sans MS;" vertex="1" parent="CvzOd15_7W6yQIFkIitd-29">
          <mxGeometry y="30" width="170" height="30" as="geometry" />
        </mxCell>
        <mxCell id="CvzOd15_7W6yQIFkIitd-31" value="show_id" style="text;strokeColor=none;fillColor=none;align=left;verticalAlign=middle;spacingLeft=4;spacingRight=4;overflow=hidden;points=[[0,0.5],[1,0.5]];portConstraint=eastwest;rotatable=0;rounded=0;sketch=1;fontFamily=Comic Sans MS;" vertex="1" parent="CvzOd15_7W6yQIFkIitd-29">
          <mxGeometry y="60" width="170" height="30" as="geometry" />
        </mxCell>
        <mxCell id="CvzOd15_7W6yQIFkIitd-33" value="name" style="text;strokeColor=none;fillColor=none;align=left;verticalAlign=middle;spacingLeft=4;spacingRight=4;overflow=hidden;points=[[0,0.5],[1,0.5]];portConstraint=eastwest;rotatable=0;rounded=0;sketch=1;fontFamily=Comic Sans MS;" vertex="1" parent="CvzOd15_7W6yQIFkIitd-29">
          <mxGeometry y="90" width="170" height="30" as="geometry" />
        </mxCell>
        <mxCell id="CvzOd15_7W6yQIFkIitd-32" value="episode" style="text;strokeColor=none;fillColor=none;align=left;verticalAlign=middle;spacingLeft=4;spacingRight=4;overflow=hidden;points=[[0,0.5],[1,0.5]];portConstraint=eastwest;rotatable=0;rounded=0;sketch=1;fontFamily=Comic Sans MS;" vertex="1" parent="CvzOd15_7W6yQIFkIitd-29">
          <mxGeometry y="120" width="170" height="30" as="geometry" />
        </mxCell>
        <mxCell id="CvzOd15_7W6yQIFkIitd-34" value="start_time" style="text;strokeColor=none;fillColor=none;align=left;verticalAlign=middle;spacingLeft=4;spacingRight=4;overflow=hidden;points=[[0,0.5],[1,0.5]];portConstraint=eastwest;rotatable=0;rounded=0;sketch=1;fontFamily=Comic Sans MS;" vertex="1" parent="CvzOd15_7W6yQIFkIitd-29">
          <mxGeometry y="150" width="170" height="30" as="geometry" />
        </mxCell>
        <mxCell id="CvzOd15_7W6yQIFkIitd-35" value="end_time" style="text;strokeColor=none;fillColor=none;align=left;verticalAlign=middle;spacingLeft=4;spacingRight=4;overflow=hidden;points=[[0,0.5],[1,0.5]];portConstraint=eastwest;rotatable=0;rounded=0;sketch=1;fontFamily=Comic Sans MS;" vertex="1" parent="CvzOd15_7W6yQIFkIitd-29">
          <mxGeometry y="180" width="170" height="30" as="geometry" />
        </mxCell>
        <mxCell id="CvzOd15_7W6yQIFkIitd-36" value="place" style="text;strokeColor=none;fillColor=none;align=left;verticalAlign=middle;spacingLeft=4;spacingRight=4;overflow=hidden;points=[[0,0.5],[1,0.5]];portConstraint=eastwest;rotatable=0;rounded=0;sketch=1;fontFamily=Comic Sans MS;" vertex="1" parent="CvzOd15_7W6yQIFkIitd-29">
          <mxGeometry y="210" width="170" height="30" as="geometry" />
        </mxCell>
        <mxCell id="CvzOd15_7W6yQIFkIitd-37" value="staff" style="text;strokeColor=none;fillColor=none;align=left;verticalAlign=middle;spacingLeft=4;spacingRight=4;overflow=hidden;points=[[0,0.5],[1,0.5]];portConstraint=eastwest;rotatable=0;rounded=0;sketch=1;fontFamily=Comic Sans MS;" vertex="1" parent="CvzOd15_7W6yQIFkIitd-29">
          <mxGeometry y="240" width="170" height="30" as="geometry" />
        </mxCell>
        <mxCell id="CvzOd15_7W6yQIFkIitd-41" value="created" style="text;strokeColor=none;fillColor=none;align=left;verticalAlign=middle;spacingLeft=4;spacingRight=4;overflow=hidden;points=[[0,0.5],[1,0.5]];portConstraint=eastwest;rotatable=0;rounded=0;sketch=1;fontFamily=Comic Sans MS;" vertex="1" parent="CvzOd15_7W6yQIFkIitd-29">
          <mxGeometry y="270" width="170" height="30" as="geometry" />
        </mxCell>
        <mxCell id="CvzOd15_7W6yQIFkIitd-42" value="updated" style="text;strokeColor=none;fillColor=none;align=left;verticalAlign=middle;spacingLeft=4;spacingRight=4;overflow=hidden;points=[[0,0.5],[1,0.5]];portConstraint=eastwest;rotatable=0;rounded=0;sketch=1;fontFamily=Comic Sans MS;" vertex="1" parent="CvzOd15_7W6yQIFkIitd-29">
          <mxGeometry y="300" width="170" height="30" as="geometry" />
        </mxCell>
        <mxCell id="CvzOd15_7W6yQIFkIitd-43" value="BroadcastPlan（播出计划）" style="swimlane;fontStyle=0;childLayout=stackLayout;horizontal=1;startSize=30;horizontalStack=0;resizeParent=1;resizeParentMax=0;resizeLast=0;collapsible=1;marginBottom=0;rounded=0;sketch=1;fontFamily=Comic Sans MS;" vertex="1" parent="1">
          <mxGeometry x="130" y="190" width="170" height="300" as="geometry">
            <mxRectangle x="240" y="200" width="50" height="30" as="alternateBounds" />
          </mxGeometry>
        </mxCell>
        <mxCell id="CvzOd15_7W6yQIFkIitd-44" value="id" style="text;strokeColor=none;fillColor=none;align=left;verticalAlign=middle;spacingLeft=4;spacingRight=4;overflow=hidden;points=[[0,0.5],[1,0.5]];portConstraint=eastwest;rotatable=0;rounded=0;sketch=1;fontFamily=Comic Sans MS;" vertex="1" parent="CvzOd15_7W6yQIFkIitd-43">
          <mxGeometry y="30" width="170" height="30" as="geometry" />
        </mxCell>
        <mxCell id="CvzOd15_7W6yQIFkIitd-45" value="show_id" style="text;strokeColor=none;fillColor=none;align=left;verticalAlign=middle;spacingLeft=4;spacingRight=4;overflow=hidden;points=[[0,0.5],[1,0.5]];portConstraint=eastwest;rotatable=0;rounded=0;sketch=1;fontFamily=Comic Sans MS;" vertex="1" parent="CvzOd15_7W6yQIFkIitd-43">
          <mxGeometry y="60" width="170" height="30" as="geometry" />
        </mxCell>
        <mxCell id="CvzOd15_7W6yQIFkIitd-46" value="name" style="text;strokeColor=none;fillColor=none;align=left;verticalAlign=middle;spacingLeft=4;spacingRight=4;overflow=hidden;points=[[0,0.5],[1,0.5]];portConstraint=eastwest;rotatable=0;rounded=0;sketch=1;fontFamily=Comic Sans MS;" vertex="1" parent="CvzOd15_7W6yQIFkIitd-43">
          <mxGeometry y="90" width="170" height="30" as="geometry" />
        </mxCell>
        <mxCell id="CvzOd15_7W6yQIFkIitd-47" value="episode" style="text;strokeColor=none;fillColor=none;align=left;verticalAlign=middle;spacingLeft=4;spacingRight=4;overflow=hidden;points=[[0,0.5],[1,0.5]];portConstraint=eastwest;rotatable=0;rounded=0;sketch=1;fontFamily=Comic Sans MS;" vertex="1" parent="CvzOd15_7W6yQIFkIitd-43">
          <mxGeometry y="120" width="170" height="30" as="geometry" />
        </mxCell>
        <mxCell id="CvzOd15_7W6yQIFkIitd-48" value="start_time" style="text;strokeColor=none;fillColor=none;align=left;verticalAlign=middle;spacingLeft=4;spacingRight=4;overflow=hidden;points=[[0,0.5],[1,0.5]];portConstraint=eastwest;rotatable=0;rounded=0;sketch=1;fontFamily=Comic Sans MS;" vertex="1" parent="CvzOd15_7W6yQIFkIitd-43">
          <mxGeometry y="150" width="170" height="30" as="geometry" />
        </mxCell>
        <mxCell id="CvzOd15_7W6yQIFkIitd-49" value="end_time" style="text;strokeColor=none;fillColor=none;align=left;verticalAlign=middle;spacingLeft=4;spacingRight=4;overflow=hidden;points=[[0,0.5],[1,0.5]];portConstraint=eastwest;rotatable=0;rounded=0;sketch=1;fontFamily=Comic Sans MS;" vertex="1" parent="CvzOd15_7W6yQIFkIitd-43">
          <mxGeometry y="180" width="170" height="30" as="geometry" />
        </mxCell>
        <mxCell id="CvzOd15_7W6yQIFkIitd-51" value="staff" style="text;strokeColor=none;fillColor=none;align=left;verticalAlign=middle;spacingLeft=4;spacingRight=4;overflow=hidden;points=[[0,0.5],[1,0.5]];portConstraint=eastwest;rotatable=0;rounded=0;sketch=1;fontFamily=Comic Sans MS;" vertex="1" parent="CvzOd15_7W6yQIFkIitd-43">
          <mxGeometry y="210" width="170" height="30" as="geometry" />
        </mxCell>
        <mxCell id="CvzOd15_7W6yQIFkIitd-52" value="created" style="text;strokeColor=none;fillColor=none;align=left;verticalAlign=middle;spacingLeft=4;spacingRight=4;overflow=hidden;points=[[0,0.5],[1,0.5]];portConstraint=eastwest;rotatable=0;rounded=0;sketch=1;fontFamily=Comic Sans MS;" vertex="1" parent="CvzOd15_7W6yQIFkIitd-43">
          <mxGeometry y="240" width="170" height="30" as="geometry" />
        </mxCell>
        <mxCell id="CvzOd15_7W6yQIFkIitd-53" value="updated" style="text;strokeColor=none;fillColor=none;align=left;verticalAlign=middle;spacingLeft=4;spacingRight=4;overflow=hidden;points=[[0,0.5],[1,0.5]];portConstraint=eastwest;rotatable=0;rounded=0;sketch=1;fontFamily=Comic Sans MS;" vertex="1" parent="CvzOd15_7W6yQIFkIitd-43">
          <mxGeometry y="270" width="170" height="30" as="geometry" />
        </mxCell>
        <mxCell id="CvzOd15_7W6yQIFkIitd-54" value="&lt;div style=&quot;background-color: rgb(255, 255, 255); color: rgb(8, 8, 8); font-size: 9pt;&quot;&gt;&lt;span style=&quot;color: #871094&quot;&gt;id                 &lt;/span&gt;&lt;span style=&quot;color: #0033b3&quot;&gt;int unsigned auto_increment&lt;br&gt;&lt;/span&gt;&lt;span style=&quot;color: #0033b3&quot;&gt;    primary key&lt;/span&gt;,&lt;br&gt;&lt;span style=&quot;color: #871094&quot;&gt;channel_name       &lt;/span&gt;&lt;span style=&quot;color: #0033b3&quot;&gt;varchar&lt;/span&gt;&lt;span style=&quot;color: #871094 ; font-style: italic&quot;&gt;(&lt;/span&gt;&lt;span style=&quot;color: #1750eb&quot;&gt;255&lt;/span&gt;&lt;span style=&quot;color: #871094 ; font-style: italic&quot;&gt;)  &lt;/span&gt;&lt;span style=&quot;color: #0033b3&quot;&gt;null comment &lt;/span&gt;&lt;span style=&quot;color: #067d17&quot;&gt;&#39;&lt;/span&gt;&lt;span style=&quot;color: rgb(6, 125, 23);&quot;&gt;所属频道&lt;/span&gt;&lt;span style=&quot;color: #067d17&quot;&gt;&#39;&lt;/span&gt;,&lt;br&gt;&lt;span style=&quot;color: #871094&quot;&gt;project_id         &lt;/span&gt;&lt;span style=&quot;color: #0033b3&quot;&gt;int           null comment &lt;/span&gt;&lt;span style=&quot;color: #067d17&quot;&gt;&#39;&lt;/span&gt;&lt;span style=&quot;color: rgb(6, 125, 23);&quot;&gt;所属项目&lt;/span&gt;&lt;span style=&quot;color: #067d17&quot;&gt;&#39;&lt;/span&gt;,&lt;br&gt;&lt;span style=&quot;color: #871094&quot;&gt;show_name          &lt;/span&gt;&lt;span style=&quot;color: #0033b3&quot;&gt;varchar&lt;/span&gt;&lt;span style=&quot;color: #871094 ; font-style: italic&quot;&gt;(&lt;/span&gt;&lt;span style=&quot;color: #1750eb&quot;&gt;255&lt;/span&gt;&lt;span style=&quot;color: #871094 ; font-style: italic&quot;&gt;)  &lt;/span&gt;&lt;span style=&quot;color: #0033b3&quot;&gt;null comment &lt;/span&gt;&lt;span style=&quot;color: #067d17&quot;&gt;&#39;&lt;/span&gt;&lt;span style=&quot;color: rgb(6, 125, 23);&quot;&gt;节目名称&lt;/span&gt;&lt;span style=&quot;color: #067d17&quot;&gt;&#39;&lt;/span&gt;,&lt;br&gt;&lt;span style=&quot;color: #871094&quot;&gt;total_cost         &lt;/span&gt;&lt;span style=&quot;color: #0033b3&quot;&gt;varchar&lt;/span&gt;&lt;span style=&quot;color: #871094 ; font-style: italic&quot;&gt;(&lt;/span&gt;&lt;span style=&quot;color: #1750eb&quot;&gt;255&lt;/span&gt;&lt;span style=&quot;color: #871094 ; font-style: italic&quot;&gt;)  &lt;/span&gt;&lt;span style=&quot;color: #0033b3&quot;&gt;null comment &lt;/span&gt;&lt;span style=&quot;color: #067d17&quot;&gt;&#39;&lt;/span&gt;&lt;span style=&quot;color: rgb(6, 125, 23);&quot;&gt;节目总成本&lt;/span&gt;&lt;span style=&quot;color: #067d17&quot;&gt;&#39;&lt;/span&gt;,&lt;br&gt;&lt;span style=&quot;color: #871094&quot;&gt;guest_cost         &lt;/span&gt;&lt;span style=&quot;color: #0033b3&quot;&gt;varchar&lt;/span&gt;&lt;span style=&quot;color: #871094 ; font-style: italic&quot;&gt;(&lt;/span&gt;&lt;span style=&quot;color: #1750eb&quot;&gt;255&lt;/span&gt;&lt;span style=&quot;color: #871094 ; font-style: italic&quot;&gt;)  &lt;/span&gt;&lt;span style=&quot;color: #0033b3&quot;&gt;null comment &lt;/span&gt;&lt;span style=&quot;color: #067d17&quot;&gt;&#39;&lt;/span&gt;&lt;span style=&quot;color: rgb(6, 125, 23);&quot;&gt;嘉宾总成本&lt;/span&gt;&lt;span style=&quot;color: #067d17&quot;&gt;&#39;&lt;/span&gt;,&lt;br&gt;&lt;span style=&quot;color: #871094&quot;&gt;guest_fee          &lt;/span&gt;&lt;span style=&quot;color: #0033b3&quot;&gt;varchar&lt;/span&gt;&lt;span style=&quot;color: #871094 ; font-style: italic&quot;&gt;(&lt;/span&gt;&lt;span style=&quot;color: #1750eb&quot;&gt;4000&lt;/span&gt;&lt;span style=&quot;color: #871094 ; font-style: italic&quot;&gt;) &lt;/span&gt;&lt;span style=&quot;color: #0033b3&quot;&gt;null comment &lt;/span&gt;&lt;span style=&quot;color: #067d17&quot;&gt;&#39;&lt;/span&gt;&lt;span style=&quot;color: rgb(6, 125, 23);&quot;&gt;嘉宾片酬（&lt;/span&gt;&lt;span style=&quot;color: #067d17&quot;&gt;json&lt;/span&gt;&lt;span style=&quot;color: rgb(6, 125, 23);&quot;&gt;）&lt;/span&gt;&lt;span style=&quot;color: #067d17&quot;&gt;&#39;&lt;/span&gt;,&lt;br&gt;&lt;span style=&quot;color: #871094&quot;&gt;episodes           &lt;/span&gt;&lt;span style=&quot;color: #0033b3&quot;&gt;int           null comment &lt;/span&gt;&lt;span style=&quot;color: #067d17&quot;&gt;&#39;&lt;/span&gt;&lt;span style=&quot;color: rgb(6, 125, 23);&quot;&gt;总期数&lt;/span&gt;&lt;span style=&quot;color: #067d17&quot;&gt;&#39;&lt;/span&gt;,&lt;br&gt;&lt;span style=&quot;color: #871094&quot;&gt;show_duration      &lt;/span&gt;&lt;span style=&quot;color: #0033b3&quot;&gt;varchar&lt;/span&gt;&lt;span style=&quot;color: #871094 ; font-style: italic&quot;&gt;(&lt;/span&gt;&lt;span style=&quot;color: #1750eb&quot;&gt;4000&lt;/span&gt;&lt;span style=&quot;color: #871094 ; font-style: italic&quot;&gt;) &lt;/span&gt;&lt;span style=&quot;color: #0033b3&quot;&gt;null comment &lt;/span&gt;&lt;span style=&quot;color: #067d17&quot;&gt;&#39;&lt;/span&gt;&lt;span style=&quot;color: rgb(6, 125, 23);&quot;&gt;节目时长（&lt;/span&gt;&lt;span style=&quot;color: #067d17&quot;&gt;json&lt;/span&gt;&lt;span style=&quot;color: rgb(6, 125, 23);&quot;&gt;）&lt;/span&gt;&lt;span style=&quot;color: #067d17&quot;&gt;&#39;&lt;/span&gt;,&lt;br&gt;&lt;span style=&quot;color: #871094&quot;&gt;broadcast_schedule &lt;/span&gt;&lt;span style=&quot;color: #0033b3&quot;&gt;varchar&lt;/span&gt;&lt;span style=&quot;color: #871094 ; font-style: italic&quot;&gt;(&lt;/span&gt;&lt;span style=&quot;color: #1750eb&quot;&gt;255&lt;/span&gt;&lt;span style=&quot;color: #871094 ; font-style: italic&quot;&gt;)  &lt;/span&gt;&lt;span style=&quot;color: #0033b3&quot;&gt;null comment &lt;/span&gt;&lt;span style=&quot;color: #067d17&quot;&gt;&#39;&lt;/span&gt;&lt;span style=&quot;color: rgb(6, 125, 23);&quot;&gt;播出安排&lt;/span&gt;&lt;span style=&quot;color: #067d17&quot;&gt;&#39;&lt;/span&gt;,&lt;br&gt;&lt;span style=&quot;color: #871094&quot;&gt;show_record        &lt;/span&gt;&lt;span style=&quot;color: #0033b3&quot;&gt;varchar&lt;/span&gt;&lt;span style=&quot;color: #871094 ; font-style: italic&quot;&gt;(&lt;/span&gt;&lt;span style=&quot;color: #1750eb&quot;&gt;255&lt;/span&gt;&lt;span style=&quot;color: #871094 ; font-style: italic&quot;&gt;)  &lt;/span&gt;&lt;span style=&quot;color: #0033b3&quot;&gt;null comment &lt;/span&gt;&lt;span style=&quot;color: #067d17&quot;&gt;&#39;&lt;/span&gt;&lt;span style=&quot;color: rgb(6, 125, 23);&quot;&gt;节目备案表（附件）&lt;/span&gt;&lt;span style=&quot;color: #067d17&quot;&gt;&#39;&lt;/span&gt;,&lt;br&gt;&lt;span style=&quot;color: #871094&quot;&gt;sarft_reply        &lt;/span&gt;&lt;span style=&quot;color: #0033b3&quot;&gt;varchar&lt;/span&gt;&lt;span style=&quot;color: #871094 ; font-style: italic&quot;&gt;(&lt;/span&gt;&lt;span style=&quot;color: #1750eb&quot;&gt;255&lt;/span&gt;&lt;span style=&quot;color: #871094 ; font-style: italic&quot;&gt;)  &lt;/span&gt;&lt;span style=&quot;color: #0033b3&quot;&gt;null comment &lt;/span&gt;&lt;span style=&quot;color: #067d17&quot;&gt;&#39;&lt;/span&gt;&lt;span style=&quot;color: rgb(6, 125, 23);&quot;&gt;总局批复（附件）&lt;/span&gt;&lt;span style=&quot;color: #067d17&quot;&gt;&#39;&lt;/span&gt;,&lt;br&gt;&lt;span style=&quot;color: #871094&quot;&gt;created            &lt;/span&gt;&lt;span style=&quot;color: #0033b3&quot;&gt;datetime      null&lt;/span&gt;,&lt;br&gt;&lt;span style=&quot;color: #871094&quot;&gt;updated            &lt;/span&gt;&lt;span style=&quot;color: #0033b3&quot;&gt;datetime      null on update &lt;/span&gt;&lt;span style=&quot;color: #0033b3 ; font-style: italic&quot;&gt;CURRENT_TIMESTAMP&lt;/span&gt;&lt;/div&gt;" style="text;whiteSpace=wrap;html=1;rounded=0;sketch=1;fontFamily=Helvetica;" vertex="1" parent="1">
          <mxGeometry x="910" width="500" height="260" as="geometry" />
        </mxCell>
        <mxCell id="CvzOd15_7W6yQIFkIitd-77" style="edgeStyle=orthogonalEdgeStyle;rounded=0;orthogonalLoop=1;jettySize=auto;html=1;exitX=0;exitY=0.5;exitDx=0;exitDy=0;entryX=1;entryY=0.25;entryDx=0;entryDy=0;curved=1;sketch=1;fontFamily=Comic Sans MS;" edge="1" parent="1" source="CvzOd15_7W6yQIFkIitd-3" target="CvzOd15_7W6yQIFkIitd-43">
          <mxGeometry relative="1" as="geometry" />
        </mxCell>
        <mxCell id="CvzOd15_7W6yQIFkIitd-78" style="edgeStyle=orthogonalEdgeStyle;rounded=0;orthogonalLoop=1;jettySize=auto;html=1;exitX=1;exitY=0.5;exitDx=0;exitDy=0;entryX=0;entryY=0.5;entryDx=0;entryDy=0;curved=1;sketch=1;fontFamily=Comic Sans MS;" edge="1" parent="1" source="CvzOd15_7W6yQIFkIitd-3" target="CvzOd15_7W6yQIFkIitd-31">
          <mxGeometry relative="1" as="geometry" />
        </mxCell>
      </root>
    </mxGraphModel>
  </diagram>
</mxfile>
